<svg width="38" height="35" viewBox="0 0 38 35" fill="none" xmlns="http://www.w3.org/2000/svg">
<path d="M35.5154 6.00443C40.985 11.5792 32.8718 17.134 32.8718 20.4136C32.8718 23.6932 35.4514 29.7788 31.5982 32.3552C27.745 34.9316 19.3182 35.126 14.5022 34.576C11.2622 34.206 5.54223 32.7456 2.15503 28.5156C-1.23217 24.2856 -0.0909656 17.2992 1.92823 11.8244C3.42863 7.75523 4.34423 4.43803 8.19823 1.86243C12.0522 -0.713173 18.0762 6.06243 21.4986 7.05443C24.921 8.04643 30.6158 1.01083 35.5154 6.00443V6.00443Z" fill="#36B084" fill-opacity="0.06"/>
<path d="M16.7167 2.12132C17.8883 0.949747 19.7878 0.949748 20.9593 2.12132L33.6719 14.8339C34.8435 16.0055 34.8435 17.9049 33.6719 19.0765L20.9593 31.7891C19.7878 32.9607 17.8883 32.9607 16.7167 31.7891L4.00413 19.0765C2.83256 17.9049 2.83256 16.0055 4.00413 14.8339L16.7167 2.12132Z" stroke="#36B084" stroke-width="1.25" stroke-dasharray="5 5"/>
</svg>
